<?xml version="1.0" encoding="UTF-8"?> <svg xmlns="http://www.w3.org/2000/svg" xmlns:xlink="http://www.w3.org/1999/xlink" width="163" height="61.879" viewBox="0 0 163 61.879"><defs><clipPath id="clip-path"><path id="Path_2" data-name="Path 2" d="M0,32.014H163V-29.865H0Z" transform="translate(0 29.865)" fill="#fff"></path></clipPath></defs><g id="Griggs_Logo" data-name="Griggs Logo" transform="translate(0 29.865)"><g id="Group_2" data-name="Group 2" transform="translate(0 -29.865)" clip-path="url(#clip-path)"><g id="Group_1" data-name="Group 1" transform="translate(38.152 0.584)"><path id="Path_1" data-name="Path 1" d="M8.967,4.844c0-7.652-5.988-9.363-12.425-9.363H-8.365V29.424h3.781v-14.9h.945l10.266,14.9H11.26L.459,14.207c5.221-.45,8.507-4.14,8.507-9.363M-4.584,11.193v-12.2h1.125c4.548,0,8.644.541,8.644,6.123,0,5.267-4.324,6.077-8.6,6.077Z" transform="translate(8.365 4.519)" fill="#fff"></path></g></g><path id="Path_3" data-name="Path 3" d="M29.595,4.362h3.781V-29.583H29.595Z" transform="translate(31.724 0.302)" fill="#fff"></path><g id="Group_7" data-name="Group 7" transform="translate(0 -29.865)" clip-path="url(#clip-path)"><g id="Group_3" data-name="Group 3" transform="translate(0 0)"><path id="Path_4" data-name="Path 4" d="M10.4,9.037,7.943,12.548H19.784c0,6.3-6.214,10.623-12.111,10.623a14.268,14.268,0,0,1-9.635-4.322A13.675,13.675,0,0,1-5.921,9.262,14.082,14.082,0,0,1,7.943-4.918c5.257,0,8.288,2.385,11.122,6.392h4.3c-2.3-4.778-7.005-9.9-15.372-9.9A17.687,17.687,0,0,0-9.7,9.217,17.6,17.6,0,0,0,7.765,26.681,16.768,16.768,0,0,0,20.323,21.01c3.106-3.6,3.6-7.382,3.512-11.974Z" transform="translate(9.704 8.43)" fill="#fff"></path></g><g id="Group_4" data-name="Group 4" transform="translate(69.505 0)"><path id="Path_5" data-name="Path 5" d="M10.4,9.037,7.943,12.548H19.782c0,6.3-6.212,10.623-12.111,10.623a14.259,14.259,0,0,1-9.632-4.322A13.668,13.668,0,0,1-5.923,9.262,14.083,14.083,0,0,1,7.943-4.918c5.257,0,8.286,2.385,11.122,6.392h4.293c-2.294-4.778-7-9.9-15.37-9.9A17.685,17.685,0,0,0-9.7,9.217,17.6,17.6,0,0,0,7.763,26.681,16.764,16.764,0,0,0,20.321,21.01c3.106-3.6,3.6-7.382,3.512-11.974Z" transform="translate(9.704 8.43)" fill="#fff"></path></g><g id="Group_5" data-name="Group 5" transform="translate(105.905 0)"><path id="Path_6" data-name="Path 6" d="M10.4,9.037,7.944,12.548H19.783c0,6.3-6.212,10.623-12.111,10.623A14.259,14.259,0,0,1-1.96,18.849,13.668,13.668,0,0,1-5.922,9.262,14.084,14.084,0,0,1,7.944-4.918c5.257,0,8.286,2.385,11.122,6.392h4.293c-2.3-4.778-7-9.9-15.372-9.9A17.685,17.685,0,0,0-9.7,9.217,17.6,17.6,0,0,0,7.764,26.681,16.768,16.768,0,0,0,20.322,21.01c3.106-3.6,3.6-7.382,3.512-11.974Z" transform="translate(9.703 8.43)" fill="#fff"></path></g><g id="Group_6" data-name="Group 6" transform="translate(141.754 -0.002)"><path id="Path_7" data-name="Path 7" d="M0,13.626A10.488,10.488,0,0,0,10.577,22.4,10.48,10.48,0,0,0,21.246,11.916c0-5.4-3.736-7.608-8.147-9.543l-2.252-.99C8.553.346,5.538-1.007,5.538-3.93A5.385,5.385,0,0,1,11.164-9.2,5.782,5.782,0,0,1,15.6-7.444l4.434,0a9.742,9.742,0,0,0-8.779-5.269c-5.041,0-9.5,3.377-9.5,8.644,0,4.863,3.423,6.889,7.384,8.69l2.072.9c3.151,1.44,6.257,2.791,6.257,6.752A6.878,6.878,0,0,1,3.908,13.628Z" transform="translate(0 12.711)" fill="#fff"></path></g></g><g id="Group_8" data-name="Group 8" transform="translate(52.015 23.881)"><path id="Path_9" data-name="Path 9" d="M0,0V7.712H4.067V6.86H.916V3.906H4.067V3.052H.916V.841H4.067V0Z" fill="#fff"></path></g><g id="Group_10" data-name="Group 10" transform="translate(0 -29.865)" clip-path="url(#clip-path)"><g id="Group_9" data-name="Group 9" transform="translate(59.411 53.564)"><path id="Path_10" data-name="Path 10" d="M2.5,2.963A2.283,2.283,0,0,1,.03,5.325a2.267,2.267,0,0,1-2.362-1.79l.831-.41c.228.939.754,1.423,1.531,1.423A1.418,1.418,0,0,0,1.574,3.114a1.662,1.662,0,0,0-1.2-1.544l-.939-.4A2.117,2.117,0,0,1-2.083-.866a1.975,1.975,0,0,1,2.167-1.9,2.068,2.068,0,0,1,2,1.164l-.754.485A1.484,1.484,0,0,0,.02-2,1.1,1.1,0,0,0-1.157-.879c0,.551.336.941,1.036,1.243l1.1.483A2.2,2.2,0,0,1,2.5,2.963" transform="translate(2.332 2.764)" fill="#fff"></path></g></g><g id="Group_11" data-name="Group 11" transform="translate(66.926 23.881)"><path id="Path_12" data-name="Path 12" d="M0,0V.874H2.178V7.712h.928V.874H5.275V0Z" fill="#fff"></path></g><g id="Group_13" data-name="Group 13" transform="translate(0 -29.865)" clip-path="url(#clip-path)"><g id="Group_12" data-name="Group 12" transform="translate(74.474 60.315)"><path id="Path_13" data-name="Path 13" d="M.324,0A.629.629,0,0,1,.96.626a.62.62,0,0,1-.636.615A.611.611,0,0,1-.3.626.626.626,0,0,1,.324,0" transform="translate(0.302)" fill="#fff"></path></g></g><g id="Group_14" data-name="Group 14" transform="translate(81.246 23.958)"><path id="Path_15" data-name="Path 15" d="M.268,0-.25.8H1.325V7.637h.893V0Z" transform="translate(0.25)" fill="#fff"></path></g><g id="Group_18" data-name="Group 18" transform="translate(0 -29.865)" clip-path="url(#clip-path)"><g id="Group_15" data-name="Group 15" transform="translate(88.588 53.67)"><path id="Path_16" data-name="Path 16" d="M1.2,2.545A2.244,2.244,0,0,1-1.124.162,2.441,2.441,0,0,1,1.584-2.374,2.316,2.316,0,0,1,3.944.15c0,1.111-.634,2-1.488,3.205L.7,5.835l-.8-.41,2.49-3.247A2.073,2.073,0,0,1,1.2,2.545M1.41-1.618A1.549,1.549,0,0,0-.175.075a1.538,1.538,0,0,0,1.629,1.7A1.554,1.554,0,0,0,3.005.075a1.532,1.532,0,0,0-1.6-1.693" transform="translate(1.124 2.374)" fill="#fff"></path></g><g id="Group_16" data-name="Group 16" transform="translate(97.182 53.444)"><path id="Path_17" data-name="Path 17" d="M1.422,1.7A2.246,2.246,0,0,1,3.753,4.085,2.458,2.458,0,0,1,1.035,6.631,2.317,2.317,0,0,1-1.327,4.108C-1.327,3-.681,2.1.173.892L1.93-1.588l.8.421L.235,2.069A2.078,2.078,0,0,1,1.422,1.7M1.217,5.865A1.548,1.548,0,0,0,2.8,4.172a1.546,1.546,0,0,0-1.639-1.7A1.556,1.556,0,0,0-.378,4.182a1.525,1.525,0,0,0,1.6,1.682" transform="translate(1.327 1.588)" fill="#fff"></path></g><g id="Group_17" data-name="Group 17" transform="translate(105.657 53.671)"><path id="Path_18" data-name="Path 18" d="M.145,1A2.052,2.052,0,0,1,2.463-.932a2.03,2.03,0,0,1,2.31,2.006A1.708,1.708,0,0,1,3.468,2.779,2.024,2.024,0,0,1,5.053,4.805c0,1.382-.939,2.254-2.59,2.254s-2.6-.9-2.6-2.231A2.024,2.024,0,0,1,1.45,2.779,1.709,1.709,0,0,1,.145,1M4.071,4.762A1.477,1.477,0,0,0,2.453,3.177,1.482,1.482,0,0,0,.835,4.762,1.454,1.454,0,0,0,2.453,6.316,1.453,1.453,0,0,0,4.071,4.762M1.094,1.053A1.2,1.2,0,0,0,2.443,2.3a1.206,1.206,0,0,0,1.38-1.249A1.224,1.224,0,0,0,2.463-.232a1.232,1.232,0,0,0-1.37,1.285" transform="translate(0.135 0.932)" fill="#fff"></path></g></g></g></svg> 